<svg width="1041" height="895" viewBox="0 0 1041 895" fill="none" xmlns="http://www.w3.org/2000/svg">
<path d="M278.697 18.4179C94.558 -43.6025 0 80.4383 0 80.4383V894.455H1037.65C1047.6 806.593 1022.72 747.157 1022.72 747.157C992.859 669.632 888.348 651.542 888.348 651.542C756.464 630.869 756.464 462.897 756.464 462.897C761.441 258.747 624.581 245.826 624.581 245.826C365.79 217.4 462.837 80.4383 278.697 18.4179Z" fill="#ECEDBF" stroke="#ECEDBF"/>
<path d="M373.394 509.174C69.7002 638.582 0 509.174 0 509.174V894.455H806.531C784.127 894.455 687.045 597.407 687.045 597.407C567.559 391.531 373.394 509.174 373.394 509.174Z" fill="#CDCEAC" stroke="#CDCEAC"/>
<path fill-rule="evenodd" clip-rule="evenodd" d="M212.758 652.217C212.909 641.008 213.232 629.8 213.655 618.597C232.767 616.876 251.88 615.153 270.992 613.432C275.873 612.991 280.752 612.552 285.631 612.113C290.929 611.635 296.226 611.158 301.522 610.68C302.073 610.631 302.817 610.619 303.645 610.605C306.284 610.561 309.772 610.503 310.557 609.178C311.703 607.241 311.116 602.137 310.672 598.268C310.495 596.726 310.341 595.381 310.328 594.51C310.251 589.685 310.175 584.862 310.099 580.039C310.024 575.214 309.948 570.391 309.871 565.568L309.87 565.491C309.314 530.02 308.758 494.549 308.201 459.078C312.777 459.228 317.353 459.365 321.929 459.493C324.895 459.577 327.864 459.667 330.835 459.756C347.797 460.266 364.81 460.778 381.757 460.257C391.743 459.951 401.206 457.256 410.634 454.077C415.646 452.387 420.608 450.547 425.532 448.611C425.983 448.434 426.691 448.063 427.508 447.635C429.493 446.594 432.128 445.214 433.312 445.443C435.323 445.833 438.299 450.142 440.484 453.305C441.287 454.468 441.984 455.477 442.486 456.077C448.417 463.186 454.348 470.294 460.28 477.402L460.538 477.71C461.29 478.612 462.146 479.527 463.02 480.462C464.944 482.519 466.954 484.67 468.134 486.966C469.031 488.712 469.528 490.906 470.001 492.998C470.225 493.985 470.442 494.949 470.695 495.833C480.481 530.043 490.05 564.473 497.177 599.349C498.712 606.856 500.167 614.415 501.021 622.035C501.085 622.616 501.166 623.239 501.251 623.89C501.716 627.463 502.294 631.898 500.906 634.977C499.172 638.828 493.822 640.565 489.976 641.817C489.724 641.898 489.479 641.978 489.242 642.055C481.722 644.531 473.848 646.005 466.057 647.328C447.286 650.515 428.28 652.364 409.31 653.861C407.151 654.032 404.967 654.138 402.779 654.244C399.097 654.422 395.402 654.602 391.789 655.091C390.262 655.297 389.836 655.162 389.612 655.316C389.433 655.44 389.381 655.75 388.996 656.571C388.159 658.351 388.287 661.473 388.397 664.154C388.446 665.341 388.49 666.444 388.446 667.304C388.277 670.598 388.109 673.893 387.94 677.187C387.772 680.481 387.603 683.776 387.435 687.071C386.513 705.043 385.593 723.016 384.674 740.987C384.363 747.062 384.051 753.135 383.74 759.209C383.119 771.357 382.496 783.505 381.874 795.652C381.701 799.013 381.53 802.375 381.358 805.737C381.176 809.279 380.995 812.821 380.814 816.365C380.753 817.561 380.771 818.87 380.788 820.215C380.827 823.019 380.867 825.978 380.198 828.392C379.831 829.715 379.94 830.2 379.756 830.369C379.566 830.545 379.059 830.376 377.367 830.458C372.24 830.706 366.989 830.374 361.78 830.044C359.193 829.879 356.618 829.716 354.071 829.625C349.872 829.475 345.673 829.325 341.473 829.175C336.968 829.014 332.461 828.853 327.956 828.692C327.347 828.669 326.721 828.695 326.108 828.721C324.216 828.799 322.446 828.871 321.69 827.525C320.829 825.992 321.038 822.566 321.205 819.831C321.275 818.693 321.338 817.674 321.312 816.962L320.587 796.698L318.598 741.071C318.162 728.879 317.726 716.687 317.29 704.495C316.821 691.398 316.351 678.301 315.884 665.203C306.21 667.151 296.536 669.098 286.862 671.046L286.842 671.049C272.538 673.928 258.233 676.808 243.928 679.684C242.159 680.041 240.3 680.521 238.397 681.012C233.239 682.341 227.75 683.757 222.802 683.047C216.074 682.081 213.292 679.207 212.914 672.82C212.551 666.689 212.64 660.514 212.728 654.369C212.738 653.652 212.748 652.935 212.758 652.217ZM407.958 543.662L405.556 539.036L404.512 544.142L394.342 593.891L393.857 596.262L396.272 596.102L431.074 593.796L433.892 593.609L432.59 591.104L407.958 543.662ZM398.442 592.26L407.084 549.989L428.015 590.299L398.442 592.26Z" fill="#CDCEAC"/>
<path fill-rule="evenodd" clip-rule="evenodd" d="M697.015 141.045C696.304 146.578 696.811 152.611 690.565 154.07C684.785 155.421 678.442 155.042 672.549 155.515C665.926 156.048 659.323 156.774 652.714 157.43C644.382 158.255 645.57 155.052 643.748 147.935C642.084 141.436 639.427 134.951 637.218 128.613C636.19 125.667 634.964 122.956 633.564 120.18C632.295 117.667 632.898 114.249 631.531 112.136C626.866 104.928 604.115 124.637 602.001 120.753C605.851 117.755 612.514 114.401 613.694 109.273C615.083 103.245 611.253 101.445 606.44 103.648C594.598 109.075 580.93 113.315 568.016 115.292C572.193 112.5 609.972 90.4912 597.292 83.9627C594.436 82.4915 590.619 85.2611 588.042 86.3087C583.951 87.9723 579.679 89.0875 575.41 90.1774C570.911 91.3258 566.4 92.4306 561.876 93.4749C558.703 94.2076 553.047 96.81 549.956 96.1677C546.817 95.515 552.378 93.5664 553.287 93.1073C557.258 91.1071 561.164 88.958 565.038 86.7815C571.913 82.9198 578.264 78.4465 583.493 72.4757C587.439 67.9705 593.955 58.1322 591.207 51.9026C589.615 48.2915 586.127 44.9541 584.078 41.5331C581.685 37.5372 579.753 33.2782 577.675 29.1152C581.153 30.6448 585.057 31.0364 588.608 32.4092C592.158 33.7831 595.764 34.8948 599.458 35.916C606.869 37.9643 614.257 38.3284 621.601 39.9897C629.915 41.8696 638.576 43.9717 647.022 45.0583C654.376 46.0029 660.988 48.0156 667.288 52.0251C680.155 60.2159 689.081 71.9823 693.595 86.5331C696.24 95.0571 696.884 103.951 697.195 112.82C697.523 122.17 698.214 131.736 697.015 141.045ZM624.805 141.733C615.82 148.284 605.346 153.402 595.704 158.975C590.186 162.162 584.551 165.142 578.924 168.129C574.93 170.249 570.078 174.152 565.682 175.24C562.9 175.928 563.108 175.981 561.347 173.445C559.665 171.023 558.196 168.416 556.623 165.922C553.719 161.324 550.79 156.743 547.859 152.162C541.291 141.894 534.734 131.627 527.832 121.577C520.908 111.492 514.266 101.222 507.559 90.9949C504.441 86.24 501.342 81.4668 498.035 76.8426C495.508 73.3116 489.031 67.9258 492.107 63.7685C494.964 59.9068 501.472 56.6987 505.321 53.7757C510.025 50.207 514.757 46.675 519.449 43.0879C529.534 35.3768 539.354 27.3303 549.43 19.6089C557.981 34.6086 568.042 48.6705 578.188 62.6156C569.012 68.4719 559.743 74.0386 550.073 79.0522C542.932 82.7549 532.005 87.7583 527.495 94.7823C523.051 101.699 527.415 109.679 535.337 109.805C540.074 109.882 544.796 108.627 549.44 107.911C552.792 107.393 558.914 104.976 561.937 106.679C556.504 110.146 536.791 120.249 547.418 129.109C555.012 135.44 567.852 126.2 576.057 128.102C573.556 132.902 570.956 140.558 577.898 143.168C583.674 145.34 591.234 141.291 596.434 139.144C600.19 137.592 603.923 135.988 607.616 134.295C610.553 132.948 614.07 130.217 617.209 129.636C620.872 128.957 628.327 139.164 624.805 141.733ZM457.775 495.482C462.915 494.544 465.555 492.418 467.174 498.661C468.625 504.253 470.062 509.638 471.931 515.126C463.901 515.82 456.818 519.654 450.961 525.048C446.792 528.891 438.498 538.065 440.555 544.5C445.549 560.14 470.777 525.054 473.775 521.305C477.445 526.669 478.795 533.692 480.618 539.827C481.917 544.193 486.735 552.562 480.366 553.623C471.424 555.114 454.649 558.443 455.709 571.108C456.962 586.057 475.977 585.973 486.644 586.645C492.659 587.023 492.688 591.842 493.544 597.237C493.927 599.648 495.124 602.909 493.075 604.675C491.257 606.242 485.687 606.287 483.321 606.794C476.422 608.275 469.526 609.785 462.627 611.265C454.795 612.946 450.654 610.592 443.332 608.446C440.622 607.652 437.899 607.987 437.7 604.953C437.577 603.09 439.4 600.209 439.997 598.367C442.359 591.08 444.372 583.576 445.05 575.923C446.039 564.802 444.803 548.129 431.112 545.958C424.598 544.926 423.345 544.59 420.405 538.476C417.225 531.865 412.174 525.742 413.396 518.126C414.278 512.607 412.788 502.165 416.31 497.587C417.938 495.471 421.112 494.209 423.279 492.656C426.04 490.675 428.699 488.555 431.271 486.337C433.435 484.473 436.073 480.829 438.526 479.483C441.525 477.836 441.616 478.958 443.769 481.529C446.947 485.326 451.998 496.537 457.775 495.482ZM472.305 520.189C470.523 523.785 466.406 527.129 463.784 530.13C461.146 533.149 458.65 536.34 455.707 539.076C452.468 542.089 440.967 549.364 443.501 539.571C445.473 531.955 452.851 525.785 459.346 521.984C460.603 521.247 475.319 514.105 472.305 520.189ZM484.888 556.451C486.028 561.549 486.642 566.804 487.615 571.939C488.113 574.565 490.874 580.906 489.749 583.431C487.843 587.711 470.682 582.645 467.125 581.172C458.657 577.667 454.77 568.667 462.579 562.258C465.541 559.83 483.747 551.355 484.888 556.451ZM496.138 617.682C497.094 622.548 499.889 627.061 495.267 630.74C491.429 633.795 485.141 635.88 480.412 636.968C473.965 638.449 471.893 634.838 468.481 630.191C464.812 625.195 460.906 620.368 456.854 615.677C469.58 612.828 482.304 609.978 495.032 607.129C495.023 610.676 495.454 614.207 496.138 617.682ZM465.645 640.27C459.009 639.927 451.869 641.924 445.138 642.449C436.733 643.106 428.352 644.061 419.939 644.625C422.094 637.748 425.965 631.614 428.994 625.117C432.032 618.598 434.165 617.893 441.153 617.391C447.63 616.925 452.198 614.695 456.976 620.19C461.949 625.905 466.452 632.115 470.992 638.172C469.448 639.206 467.603 640.372 465.645 640.27ZM418.208 641.673C416.57 642.866 411.521 639.475 409.819 638.818C406.51 637.538 405.775 637.126 404.048 633.898C402.564 631.122 400.202 627.967 399.738 624.797C399.124 620.62 400.972 615.12 401.645 610.97C403.438 615.291 409.318 615.793 413.294 616.499C416.299 617.034 425.204 616.182 427.471 618.323C429.974 620.688 425.366 627.284 424.164 629.768C422.73 632.734 420.96 639.668 418.208 641.673ZM414.999 645.101C413.029 645.419 407.357 647.379 407.47 643.78C407.598 639.668 415.401 644.104 414.999 645.101ZM405.006 644.885C404.646 648.347 397.197 648.06 397.026 645.015C396.736 639.868 405.578 639.356 405.006 644.885ZM396.487 551.52C394.584 556.945 382.983 558.885 378.528 560.555C374.46 562.081 362.307 569.121 358.111 566.568C372.312 556.807 386.863 547.243 398.895 534.78C399.387 537.858 398.637 540.43 397.729 543.344C396.911 545.974 397.331 549.117 396.487 551.52ZM392.956 571.302C390.913 584.59 388.907 598.052 386.143 611.208C380.873 609.598 376.528 606.335 370.991 605.198C365.94 604.16 360.722 604.135 355.628 604.892C344.773 606.507 335.097 611.876 325.627 617.109C324.752 607.997 322.941 598.244 323.155 589.1C323.332 581.503 336.331 579.254 342.226 576.116C345.793 574.218 349.018 571.548 353.082 570.886C357.263 570.204 361.299 570.225 365.429 568.95C375.195 565.937 384.386 561.159 393.954 557.598C394.737 562.159 393.649 566.807 392.956 571.302ZM383.831 627.539C383.397 630.559 383.944 635.95 381.642 638.252C379.476 640.421 374.846 640.492 371.988 641.08C363.281 642.871 354.582 644.68 345.889 646.528C341.999 647.355 338.108 648.145 334.202 648.883C332.339 649.235 327.667 651.022 326.098 649.539C324.609 648.131 325.718 643.634 325.798 641.747C325.959 637.978 326.172 634.197 325.934 630.426C325.482 623.194 325.884 620.424 332.615 616.682C339.766 612.707 347.15 609.985 355.199 608.511C363.347 607.02 371.111 607.836 378.868 610.965C381.026 611.835 384.263 612.908 385.268 615.234C386.634 618.401 384.291 624.33 383.831 627.539ZM374.029 744.118C370.838 746.12 363.892 745.778 360.226 746.185C354.307 746.838 348.35 746.465 342.469 745.551C338.042 744.865 331.435 743.912 328.043 740.804C323.221 736.388 328.785 736.185 332.474 736.496C343.2 737.398 354.06 736.768 364.775 735.993C366.861 735.842 372.468 734.011 374.479 734.868C377.052 735.964 376.263 742.716 374.029 744.118ZM367.948 815.488C347.965 813.546 336.38 796.997 329.133 780.08C325.243 770.997 326.645 761.467 326.262 751.862C326.193 750.107 325.09 745.754 326.894 744.444C328.588 743.212 335.444 747.019 337.298 747.473C346.802 749.803 357.314 750.026 366.839 747.763C370.966 746.783 373.276 744.96 374.588 749.05C375.643 752.344 373.911 758.413 373.721 761.865C373.395 767.836 374.33 816.107 367.948 815.488ZM328.028 815.506C327.952 812.607 326.49 783.314 327.909 783.226C332.124 792.321 336.455 800.457 344.13 807.148C348.051 810.567 352.459 813.648 357.362 815.484C359.204 816.173 369.642 816.696 370.154 818.982C371.048 822.982 363.923 821.368 361.809 821.043C360.113 820.781 358.587 820.058 356.924 819.756C353.753 819.182 350.759 819.954 347.576 820.018C342.739 820.117 337.989 819.61 333.15 820.028C328.727 820.41 328.146 819.901 328.028 815.506ZM330.979 684.117C348.085 678.587 362.382 689.059 371.41 702.766C376.557 710.583 377.709 716.049 376.808 725.304C376.486 728.618 377.081 730.861 374.035 732.211C371.021 733.548 364.172 732.556 360.909 732.709C351.528 733.147 342.182 733.73 332.801 733.173C326.707 732.812 325.847 731.78 325.952 725.864C326.078 718.742 325.485 711.654 325.083 704.521C324.646 696.804 321.997 687.019 330.979 684.117ZM325.381 673.86C325.391 668.627 325.077 663.258 325.397 658.034C325.715 652.855 327.919 653.111 332.808 652.227C343.396 650.313 353.97 648.171 364.415 645.576C368.547 644.549 373.215 642.58 377.518 642.564C382.035 642.548 381.795 644.869 381.493 648.868C380.824 657.726 379.201 666.454 378.708 675.265C378.175 684.775 377.896 694.408 377.939 703.928C377.954 707.142 378.735 709.521 375.995 706.514C373.253 703.501 371.91 698.701 369.461 695.315C364.445 688.383 356.989 682.806 348.716 680.457C344.142 679.159 339.33 678.934 334.666 679.874C333.251 680.158 326.163 683.542 325.261 682.874C324.651 682.421 325.38 674.071 325.381 673.86ZM387.962 855.208C394.748 860.067 402.261 863.993 409.867 867.401C414.147 869.318 431.089 873.354 431.629 877.67C431.918 879.974 429.111 882.554 427.271 882.826C424.939 883.172 421.095 881.648 418.719 881.359C410.079 880.311 401.457 880.304 393.025 877.898C376.193 873.094 358.742 871.741 341.735 867.553C337.689 866.557 333.634 865.623 329.566 864.72C325.703 863.862 323.972 864.01 323.835 859.881C323.535 850.819 326.134 841.535 326.155 832.361C339.913 833.931 353.719 833.911 367.514 835.203C373.426 835.757 373.288 836.876 375.879 842.043C378.569 847.403 383.143 851.756 387.962 855.208ZM320.879 560.796C320.705 557.441 320.569 554.078 320.266 550.732C320.062 548.484 318.009 542.203 319.166 540.452C320.542 538.374 321.927 539.642 324.388 539.583C327.631 539.507 330.348 538.203 333.022 536.496C338.088 533.265 341.854 529.011 345.141 524.048C348.033 519.679 347.495 513.71 347.46 508.479C347.368 494.952 348.353 481.758 347.528 468.17C347.149 461.929 352.476 465.757 356.777 466.566C363.814 467.887 371.461 466.972 378.612 466.989C378.346 468.652 363.724 472.782 361.362 474.354C355.313 478.377 351.787 484.812 352.338 492.149C353.448 506.909 369.703 509.376 381.58 509.404C371.726 518.118 362.048 526.426 354.303 537.177C348.593 545.102 338.535 560.73 347.871 569.499C339.619 574.186 331.44 579.4 322.107 581.656C321.689 574.704 321.241 567.752 320.879 560.796ZM317.133 291.356C320.493 293.515 321.905 290.463 324.462 288.883C328.063 286.656 329.255 286.875 329.711 281.903C330.557 272.681 326.677 264.332 321.807 256.786C319.593 253.356 317.385 249.271 314.26 246.589C311.412 244.145 308.531 244.986 305.892 242.459C304.856 241.466 305.078 240.063 303.365 240.103C302.237 240.13 299.496 243.624 298.565 244.396C295.622 246.832 292.022 248.686 288.166 246.677C282.551 243.753 284.353 233.139 288.715 229.702C292.073 227.054 296.042 227.463 299.865 227.035C302.732 226.717 303.328 226.841 302.15 223.559C301.323 221.262 299.417 219.469 298.476 217.221C296.667 212.906 297.061 207.662 296.28 203.095C295.579 199.002 293.937 194.576 293.996 190.42C294.075 185.128 295.804 183.753 300.388 182.27C304.829 180.832 308.508 177.664 312.291 175.003C316.573 171.989 321.263 170 325.664 167.248C328.651 165.379 330.579 161.602 333.864 163.366C337.768 165.463 341.895 171.533 345.215 174.633C340.357 177.717 339.228 179.065 339.897 185.102C340.511 190.635 341.638 195.567 345.868 199.422C347.493 200.903 350.524 202.089 351.784 203.797C353.253 205.787 352.298 204.034 352.112 206.279C352.014 207.491 351.055 208.283 351.263 209.684C352.196 215.902 359.339 212.232 362.283 210.071C372.801 202.353 353.161 196.223 348.497 193.411C345.276 191.467 343.683 185.267 348.786 186.914C352.182 188.01 359.851 197.299 360.63 188.831C369.047 193.722 374.243 204.112 381.301 210.682C386.391 215.42 393.229 220.675 389.189 228.241C384.04 237.887 373.831 242.264 364.51 246.426C355.47 250.462 357.347 261.884 362.179 268.875C364.973 272.916 368.633 275.284 373.037 277.248C377.535 279.255 378.47 281.613 379.452 286.267C380.544 291.431 379.385 293.512 374.914 296.18C370.548 298.786 365.985 301.309 361.325 303.348C351.247 307.758 340.793 308.037 330.074 309.54C326.318 310.066 322.716 311.164 320.666 307.439C318.362 303.247 318.192 296.03 317.133 291.356ZM315.512 271.298C312.99 269.968 306.901 274.384 303.712 274.578C298.554 274.891 295.168 274.773 290.588 277.509C281.932 282.682 274.749 289.341 267.808 296.564C259.99 304.698 252.217 312.875 244.425 321.034C240.893 324.729 237.344 328.406 233.757 332.046C230.93 334.915 228.165 338.95 224.666 340.997C224.848 338.566 226.34 336.844 226.869 334.59C227.176 333.272 226.639 332.154 226.838 330.891C226.903 330.482 228.003 329.058 228.17 328.591C228.617 327.358 229.163 326.14 229.693 324.859C230.188 323.664 230.115 322.425 230.617 321.177C231.133 319.89 232.547 319.039 233.036 317.771C234.473 314.062 232.095 312.341 228.292 312.429C229.78 305.007 230.43 301.376 238.19 298.759C245.604 296.258 252.847 293.451 259.657 289.543C265.704 286.074 270.748 281.074 276.561 277.208C281.766 273.745 288.245 270.118 288.19 263.018C291.141 265.02 293.907 266.705 297.281 264.711C300.131 263.029 300.508 261.675 303.802 261.357C306.49 261.1 308.156 261.031 310.555 262.213C313.379 263.604 313.764 264.571 315.409 260.477C317.278 262.05 322.001 268.602 321.844 271.196C321.757 272.624 321.541 273.269 319.77 273.645C317.261 274.179 317.358 272.27 315.512 271.298ZM303.75 659.076C302.523 660.957 297.348 660.61 295.35 660.586C289.258 660.506 287.129 655.393 284.456 650.453C280.243 642.663 273.946 626.484 280.858 618.309C286.314 611.857 296.941 619.986 300.663 624.859C303.877 629.069 302.922 635.383 303.221 640.435C303.474 644.692 306.175 655.364 303.75 659.076ZM287.109 661.897C284.673 664.332 276.769 663.817 273.542 664.341C267.783 665.272 262.056 666.393 256.468 668.095C252.308 669.361 248.196 672.768 247.1 666.969C246.179 662.094 246.637 656.246 246.725 651.325C246.82 646.016 247.376 640.774 247.837 635.49C248.15 631.915 247.367 625.34 250.285 622.596C252.799 620.232 258.912 620.005 262.176 619.221C267.537 617.935 273.137 616.247 278.708 616.823C275.458 625.646 275.182 634.9 278.668 643.693C279.662 646.203 288.612 660.393 287.109 661.897ZM246.147 626.745C244.788 640.018 243.423 653.374 244.73 666.715C244.809 667.509 245.76 671.154 245.347 671.724C244.92 672.315 241.537 672.621 240.769 672.802C237.719 673.525 234.673 674.292 231.603 674.935C225.628 676.184 224.848 672.409 223.676 666.871C221.165 655.006 226.033 642.141 228.984 630.746C230.421 625.197 231.485 624.557 236.941 624.097C240.738 623.778 246.724 621.105 246.147 626.745ZM223.076 676.264C220.792 678.341 218.51 668.542 218.308 667.543C217.511 663.577 217.955 659.555 217.966 655.527C217.986 649.235 217.505 642.973 217.495 636.712C217.49 633.324 214.952 626.4 218.96 624.608C220.136 624.082 224.808 624.301 225.867 624.993C228.069 626.431 227.202 627.363 226.549 629.864C225.088 635.48 223.825 641.121 222.553 646.783C221.305 652.333 220.074 657.674 220.668 663.407C220.863 665.303 224.53 674.94 223.076 676.264ZM295.891 614.42C301.457 612.851 301.755 617.116 301.745 621.197C300.897 620.547 292.987 615.238 295.891 614.42ZM221.44 314.81C220.076 317.058 211.438 317.672 208.97 318.264C204.114 319.426 199.255 320.582 194.411 321.794C185.338 324.063 176.487 326.622 167.184 327.809C172.293 319.631 173.882 312.568 172.931 302.36C171.733 289.473 170.208 276.717 167.242 264.102C164.318 251.662 160.932 239.306 157.67 226.95C156.068 220.879 154.336 214.925 152.205 209.018C150.497 204.285 147.829 198.324 150.729 193.471C158.086 198.84 163.988 204.624 168.185 212.779C172.68 221.522 176.606 230.497 181.824 238.861C184.21 242.685 186.996 246.172 189.548 249.873C191.066 252.076 192.172 255.254 194.106 257.112C196.336 259.253 198.713 260.263 199.987 256.649C201.354 252.771 196.993 245.098 195.706 241.456C192.597 232.665 189.515 223.89 187.117 214.872C185.178 207.582 181.972 198.768 183.106 191.077C184.229 183.462 189.395 188.913 192.01 192.453C197.399 199.752 200.626 208.259 204.167 216.534C207.421 224.135 211.216 231.384 214.818 238.809C216.07 241.393 217.721 248.068 221.002 248.836C225.772 249.955 225.369 243.236 224.912 240.511C221.889 222.44 213.998 205.137 212.361 186.753C212.282 185.875 211.141 179.045 212.059 178.474C213.837 177.367 216.236 184.297 217.003 185.995C220.994 194.826 223.772 204.136 226.322 213.464C228.491 221.397 230.453 229.39 232.886 237.249C234.223 241.568 235.756 245.815 237.269 250.076C238.635 253.936 240.023 260.531 243.589 263.075C248.648 266.682 266.75 258.105 268.584 265.773C269.889 271.224 253.104 275.614 249.529 277.269C244.823 279.448 240.207 281.834 235.498 284.016C231.934 285.666 226.811 286.342 224.232 289.447C221.501 292.736 221.063 297.355 220.981 301.435C220.919 304.523 223.058 312.145 221.44 314.81ZM210 374.331C209.761 376.044 208.399 378.312 207.786 379.943C206.54 383.264 205.479 387.232 203.745 390.335C202.253 393.008 200.051 395.397 198.609 398.109C197.242 400.683 197.06 403.651 195.463 406.227C193.635 409.173 190.615 411.291 188.8 414.217C187.905 415.661 186.981 417.31 185.718 418.847C181.242 424.294 176.798 429.432 173.198 435.267C172.278 436.761 167.781 443.281 165.992 443.634C162.251 444.368 166.605 439.051 167.337 437.951C172.637 429.996 177.344 421.62 182.46 413.541C187.416 405.719 192.487 397.958 197.256 390.018C201.146 383.544 203.836 374.251 210.157 369.691C210.18 371.241 210.13 372.788 210 374.331ZM382.83 301.22C385.908 313.878 389.59 326.144 393.061 338.69C396.282 350.33 400.567 362.787 401.903 374.787C403.225 386.675 406.264 398.702 410.351 409.985C412.239 415.206 414.183 420.446 416.234 425.607C417.36 428.442 418.62 431.213 419.899 433.981C420.892 436.132 423.515 439.615 423.616 441.894C423.696 443.72 424.33 442.99 422.528 444.362C420.663 445.782 417.432 445.267 415.261 445.516C409.595 446.172 404.07 448.303 398.547 449.684C387.895 452.347 375.198 454.461 364.282 452.607C359.691 451.827 354.922 451.152 350.382 450.137C344.795 448.887 343.647 446.575 342.501 441.084C339.993 429.079 337.834 417.106 335.763 405.022C333.302 390.646 330.637 376.288 328.737 361.825C326.819 347.192 325.44 332.545 322.433 318.072C334.563 320.101 345.985 322.392 358.149 319.068C368.922 316.125 376.699 310.372 382.83 301.22ZM430.309 457.937C433.021 463.525 426.485 468.55 423.318 472.856C419.141 478.53 415.24 484.459 410.381 489.591C408.924 483.758 407.645 477.195 403.756 472.405C398.789 466.289 392.992 468.788 386.908 465.894C393.289 462.789 401.437 463.974 408.206 461.206C414.883 458.475 421.625 456.332 427.839 452.785C428.664 454.501 429.479 456.223 430.309 457.937ZM406.644 588.341C402.565 588.567 405.294 579.965 405.559 577.828C406.287 571.952 407.023 566.077 407.661 560.192C411.026 569.066 414.39 577.94 417.754 586.814C414.056 587.342 410.383 588.133 406.644 588.341ZM400.01 630.882C400.566 632.118 403.161 636.239 401.112 637C398.305 638.04 397.967 631.214 400.01 630.882ZM395.144 535.281C382.152 545.654 369.249 556.055 355.192 564.987C352.112 566.943 349.01 567.762 346.968 563.882C345.365 560.831 347.059 557.393 348.089 554.406C350.713 546.791 355.285 540.172 360.352 533.974C370.471 521.597 382.516 511.026 397.884 506.146C400.399 505.348 404.28 502.938 405.16 506.266C405.679 508.222 403.484 513.109 403.039 514.945C401.203 522.53 401.604 530.125 395.144 535.281ZM432.543 610.938C432.83 619.746 408.751 612.642 405.75 611.067C408.899 610.011 432.414 606.978 432.543 610.938ZM441.484 610.993C442.915 611.374 448.401 611.858 446.353 613.733C444.518 615.413 436.211 614.738 434.009 614.945C435.489 610.085 436.612 609.696 441.484 610.993ZM437.024 599.193C436.485 601.153 436.266 604.143 434.511 605.486C432.322 607.16 427.672 606.143 425.196 606.156C420.989 606.178 416.786 606.394 412.601 606.812C410.999 606.971 404.512 608.926 403.009 607.592C401.907 606.613 402.318 602.016 403.121 600.982C404.77 598.858 408.567 599.594 410.946 599.509C419.653 599.198 428.312 599.172 437.024 599.193ZM431.434 566.633C430.206 564.806 429.985 564.826 429.461 562.067C428.9 559.114 427.476 556.588 426.638 553.735C424.793 547.457 430.684 548.014 435.006 550.316C446.216 556.289 443.51 577.16 440.738 586.931C436.708 583.966 435.22 582.623 433.834 577.841C433.307 576.024 432.716 574.24 432.168 572.434C431.764 571.102 432.045 567.543 431.434 566.633ZM432.404 465.057C435.534 464.679 438.397 474.391 437.504 476.493C435.673 480.792 428.681 484.632 425.119 487.376C422.749 489.203 420.394 491.297 417.859 492.891C415.507 494.368 414.154 493.539 411.965 494.249C408.799 495.274 408.032 498.625 404.792 500.064C400.233 502.091 394.706 502.658 389.945 504.488C384.167 506.707 378.87 506.768 372.812 505.716C364.1 504.203 353.887 499.881 354.674 489.293C356.058 470.612 393.152 461.041 403.269 476.88C405.902 481.002 405.861 485.808 407.57 490.237C409.422 495.029 411.217 493.145 414.002 489.617C417.645 484.997 421.03 480.131 424.53 475.403C425.663 473.874 430.145 465.333 432.404 465.057ZM205.073 646.937C204.895 650.114 205.086 653.336 203.981 656.368C202.867 659.424 200.611 661.896 199.312 664.868C196.676 670.888 196.696 678.174 196.802 684.625C197.047 699.636 200.601 714.216 202.481 729.047C196.224 729.032 189.755 729.103 183.69 727.314C178.273 725.715 177.408 721.756 175.877 716.766C171.574 702.753 166.928 688.8 165.539 674.124C164.879 667.13 164.601 660.08 164.284 653.064C164.009 646.909 165.39 644.225 170.945 641.178C183.021 634.553 195.538 629.039 207.49 622.099C206.268 630.332 205.538 638.629 205.073 646.937ZM720.573 155.109C717.634 154.569 714.666 154.232 711.699 153.877C710.151 153.693 705.327 153.95 704.168 152.941C702.789 151.74 705.177 142.659 705.299 140.71C706.046 128.993 705.178 116.912 704.103 105.239C702.159 84.1059 695.513 64.5277 680.181 49.3106C672.549 41.7357 663.969 35.726 653.547 32.8259C647.474 31.136 641.216 30.235 635.131 28.5965C630.222 27.2731 625.642 25.7583 620.542 25.2339C610.37 24.1875 601.072 20.344 591.146 18.1205C583.843 16.4845 572.097 12.6043 567.362 20.8512C563.636 16.4798 559.887 13.1974 555.186 9.93658C550.684 6.81324 549.948 3.69335 544.435 7.29988C533.723 14.308 523.691 22.857 513.686 30.8303C504.341 38.2769 495.3 46.075 485.506 52.9227C475.519 59.9079 477.413 71.7613 482.109 81.5882C490.947 100.085 504.576 115.897 516.508 131.752C523.981 141.684 531.479 151.629 538.922 161.581C546.038 171.092 552.194 182.101 560.508 190.646C565.752 196.033 572.009 188.989 576.74 185.734C582.613 181.691 588.382 177.498 594.262 173.467C606.506 165.071 619.607 157.206 632.533 149.897C633.473 152.562 634.413 155.227 635.353 157.893C632.514 158.106 628.679 157.471 627.235 160.524C625.17 164.883 630.234 165.456 631.123 167.956C631.916 170.188 628.665 176.084 627.702 178.096C625.539 182.629 622.519 186.537 619.191 190.267C606.028 205.034 589.369 215.596 572.468 225.663C554.381 236.435 534.996 243.011 515.195 249.952C505.126 253.481 494.676 255.121 484.286 257.38C474.275 259.558 464.271 262.419 454.041 263.241C433.11 264.92 410.899 266.179 390.221 261.665C387.958 261.171 385.562 260.101 383.26 259.898C381.413 259.734 380.047 260.508 378.304 260.608C374.562 260.822 372.417 257.475 369.445 260.584C367.957 262.14 367.932 264.751 365.858 261.848C363.222 258.155 369.962 257.442 372.459 256.39C380.867 252.847 387.627 245.717 392.97 238.508C398.308 231.305 399.076 223.612 395.825 215.179C392.575 206.749 385.184 201.035 379.636 194.189C376.952 190.874 374.482 187.367 371.535 184.273C369.962 182.62 367.426 181.038 367.327 179.371C367.213 177.433 368.373 176.471 367.679 174.115C367.5 173.503 366.731 173.154 366.567 172.481C366.307 171.408 366.709 170.488 366.573 169.442C366.262 167.045 365.322 165.539 363.991 163.576C363.163 162.348 361.95 159.89 360.809 158.971C358.81 157.359 356.083 158.016 354.051 156.382C350.835 153.798 349.704 148.354 346.859 145.216C342.854 140.801 341.999 145.262 337.755 143.855C334.127 142.651 334.169 137.19 331.237 135.343C327.107 132.742 323.629 137.528 319.961 138.594C315.136 139.997 316.99 134.552 312.689 134.056C308.806 133.608 303.426 141.487 301.489 144.285C299.516 141.985 297.358 138.066 293.807 139.47C290.08 140.944 289.417 147.805 286.693 150.252C285.743 151.104 285.944 151.731 284.776 152.124C283.268 152.628 281.259 150.439 279.309 151.106C275.375 152.454 275.855 157.703 275.848 161.104C271.207 160.426 267.97 160.08 266.416 165.082C264.895 169.977 264.318 167.817 259.425 169.408C255.208 170.777 254.617 174.784 253.921 178.701C253.49 181.138 253.889 182.133 254.545 184.354C255.372 187.152 255.372 187.117 254.023 189.788C251.674 194.448 251.534 199.582 251.159 204.71C250.76 210.182 249.803 215.164 251.358 220.509C252.319 223.816 252.393 228.317 255.632 230.169C256.917 230.904 259.099 230.501 260.193 231.23C262.28 232.62 261.645 234.735 263.035 236.766C264.076 238.285 265.757 238.432 266.923 239.663C268.192 241.004 268.268 242.637 268.99 244.274C271.128 249.119 273.14 251.463 266.169 251.74C261.868 251.911 257.28 253.201 252.996 252.804C247.942 252.339 246.684 249.513 245.075 245.21C236.966 223.527 232.608 200.026 221.929 179.408C219.584 174.88 209.959 156.385 205.89 169.861C202.46 181.226 206.961 195.097 208.687 206.409C203.272 201.53 201.269 192.738 197.157 186.779C194.121 182.377 184.612 171.566 179.037 177.761C174.645 182.644 175.742 192.998 176.553 198.835C177.834 208.071 180.786 216.97 182.893 226.029C180.239 222.557 178.93 218.318 177.088 214.409C174.779 209.506 171.898 204.855 168.614 200.548C165.745 196.784 162.536 193.284 159.057 190.075C156.398 187.621 151.637 182.249 147.861 181.958C138.142 181.213 141.199 199.04 142.679 204.137C145.747 214.701 149.073 224.974 151.455 235.75C156.11 256.806 161.749 277.375 165.179 298.698C165.938 303.426 166.852 307.199 164.983 311.745C163.335 315.749 161.626 320.536 158.586 323.615C151.704 330.586 145.991 338.03 140.847 346.431C135.337 355.428 129.666 364.529 125.169 374.08C123.1 378.474 121.409 383.227 119.032 387.453C116.886 391.268 114.307 394.282 112.782 398.506C105.493 418.688 100.097 438.517 97.6266 459.887C95.5978 477.432 97.4876 500.77 118.669 504.875C128.4 506.761 137.136 502.446 145.911 498.884C154.986 495.202 161.548 489.213 168.95 482.849C178.148 474.942 187.697 467.524 196.993 459.749C206.293 451.969 214.883 443.341 224.132 435.479C233.268 427.71 241.533 419.46 249.433 410.439C257.271 401.49 263.637 391.577 271.224 382.502C271.196 394.25 269.453 405.892 268.963 417.624C268.516 428.38 268.505 439.126 268.94 449.877C269.374 460.623 266.535 470.85 266.512 481.572C266.488 492.031 266.073 502.429 265.844 512.877C265.742 517.563 264.823 522.821 266.574 527.343C267.882 530.719 271.991 531.775 275.497 532.684C280.916 534.091 297.216 531.383 299.636 537.172C300.958 540.33 299.626 546.081 299.73 549.572C299.902 555.324 300.112 561.075 300.309 566.826C300.513 572.766 300.712 578.706 300.928 584.644C301.12 589.877 302.137 595.707 301.507 600.887C300.967 605.328 298.379 604.747 294.276 604.975C288.083 605.317 281.89 605.593 275.694 605.862C266.606 606.261 257.122 606.079 248.409 607.151C244.75 607.602 240.752 607.41 236.892 608.144C232.051 609.065 227.58 609.299 222.67 609.542C218.712 609.738 213.623 609.45 210.513 612.377C209.435 613.392 209.193 614.603 208.428 615.733C206.995 617.85 207.792 617.293 205.441 617.769C196.261 619.629 187.541 621.727 178.564 624.856C174.069 626.423 169.9 628.527 165.384 630C161.428 631.291 158.528 632.881 156.572 636.766C153.077 643.704 153.962 653.742 154.215 661.219C154.614 672.885 157.205 683.991 159.999 695.273C162.906 707.01 165.186 719.061 170.842 729.843C172.7 733.387 174.706 737.908 178.502 739.755C183.402 742.138 190.939 740.693 196.288 740.702C199.876 740.708 209.492 741.941 212.175 738.931C214.772 736.016 212.159 727.796 211.792 724.178C210.507 711.502 208.192 698.708 208.223 685.946C211.151 690.272 216.228 697.741 221.309 691.113C222.559 689.481 222.07 688.723 224.291 687.777C225.519 687.254 228.109 686.933 229.446 687.024C231.266 687.146 231.939 687.878 233.61 687.52C235.09 687.203 236.753 685.877 238.45 685.475C259.481 680.476 280.389 675.088 301.51 670.635C307.094 669.456 306.301 673.744 306.67 678.572C307.077 683.912 306.3 689.305 307.04 694.586C307.685 699.181 308.187 703.658 307.279 708.28C306.209 713.732 306.898 718.28 307.964 723.679C312.072 744.497 311.338 767.075 312.264 788.234C312.747 799.253 311.712 810.505 312.748 821.465C313.139 825.606 315.45 827.893 316.386 831.658C317.461 835.983 314.529 841.488 313.637 845.678C311.845 854.087 308.696 866.122 314.455 873.438C317.566 877.39 321.643 877.963 326.247 879.298C331.758 880.898 337.188 882.762 342.723 884.277C362.95 889.814 384.808 890.896 405.538 893.948C410.614 894.695 415.322 894.625 420.431 894.271C423.58 894.052 431.336 895.089 433.954 893.203C435.357 892.196 434.647 890.932 435.36 889.699C436.372 887.947 437.6 887.236 439.324 886.146C442.179 884.341 445.481 883.286 445.964 879.56C447.142 870.434 435.738 865.6 429.642 861.654C421.849 856.61 412.437 854.662 404.168 850.545C399.606 848.274 395.204 845.7 390.808 843.122C388.902 842.005 385.038 840.74 383.709 838.981C382.353 837.185 383.681 834.622 384.242 832.057C386.56 821.455 385.776 810.617 386.976 799.903C388.174 789.172 387.848 778.377 388.243 767.591C388.65 756.484 389.568 745.405 390.272 734.314C390.92 724.07 391.573 713.662 391.682 703.407C391.784 693.899 393.081 684.571 393.387 675C393.492 671.752 392.908 665.859 395.065 663.108C396.956 660.695 403.219 660.998 406.139 660.575C414.012 659.433 421.505 658.43 429.289 657.741C447.81 656.102 468.422 654.895 485.936 648.439C493.159 645.776 502.77 642.139 505.167 633.845C507.923 624.31 504.325 612.59 504.206 602.841C504.079 592.432 501.061 582.277 498.799 572.191C496.363 561.334 494.829 550.291 492.196 539.474C489.781 529.549 485.862 520.759 482.157 511.336C480.654 507.514 472.096 494.345 474.751 491.098C476.18 489.348 481.332 488.905 483.422 488.104C487.926 486.382 492.439 484.422 496.593 481.967C502.138 478.689 514.281 473.267 514.841 465.984C515.374 459.023 508.534 451.989 505.057 446.522C499.457 437.713 492.391 430.013 487.057 421.03C476.275 402.876 467.702 382.992 459.842 363.428C455.73 353.193 454.387 343.555 453.71 332.63C465.65 332.658 477.803 334.128 489.667 332.458C502.58 330.641 515.509 327.579 528.308 325.057C551.617 320.462 573.995 315.275 595.587 304.929C615.806 295.242 636.323 284.639 653.064 269.261C661.721 261.31 670.551 253.207 678.025 244.114C685.705 234.773 691.481 224.161 697.407 213.675C703.946 202.1 709.15 189.936 713.265 177.276C714.093 174.731 714.098 171.49 715.158 169.085C716.352 166.371 718.526 166.3 720.797 164.87C723.991 162.858 726.117 156.126 720.573 155.109Z" fill="black"/>
<path fill-rule="evenodd" clip-rule="evenodd" d="M442.585 25.5433C445.315 27.8884 457.08 36.1489 460.879 34.1403C465.568 31.6608 458.145 24.1915 456.147 22.3501C453.603 20.0073 444.516 12.9199 441.036 13.5778C434.081 14.8936 440.129 23.4326 442.585 25.5433Z" fill="black"/>
<path fill-rule="evenodd" clip-rule="evenodd" d="M448.396 110.324C449.939 107.288 454.041 106.172 455.937 103.235C458.219 99.7036 459.267 96.6132 458.426 92.2828C452.585 94.2491 445.94 100.201 442.033 104.854C438.766 108.744 434.127 116.871 442.65 116.892C442.577 115.735 442.502 114.576 442.427 113.421C444.983 113.792 447.236 112.611 448.396 110.324Z" fill="black"/>
<path fill-rule="evenodd" clip-rule="evenodd" d="M420.572 59.8211C424.337 60.9035 427.445 60.7502 431.292 60.8348C434.084 60.8971 437.899 62.4317 440.162 60.7019C438.154 59.5392 440.691 59.475 440.193 58.3411C439.776 57.3959 438.984 57.7056 438.339 56.9404C436.041 54.2141 434.043 54.2473 430.399 53.6803C427.574 53.2389 423.422 52.2208 420.709 53.6246C417.853 55.1025 416.748 58.7216 420.572 59.8211Z" fill="black"/>
<path fill-rule="evenodd" clip-rule="evenodd" d="M474.171 143.443C476.606 141.401 479.261 135.487 479.753 132.436C479.947 131.24 479.085 130.324 479.187 129.444C479.384 127.767 482.83 124.526 479.221 123.151C476.064 121.946 473.096 131.302 472.294 133.344C471.471 135.432 469.229 139.5 469.917 141.519C470.488 143.195 472.526 144.821 474.171 143.443Z" fill="black"/>
<path fill-rule="evenodd" clip-rule="evenodd" d="M503.303 16.8108C505.507 14.7657 506.902 12.4462 506.673 9.63375C506.492 7.41835 504.833 -0.219705 502.966 0.00484933C496.766 0.753201 499.554 20.2935 503.303 16.8108Z" fill="black"/>
<path fill-rule="evenodd" clip-rule="evenodd" d="M372.426 358.299C371.915 356.432 370.061 345.013 366.854 345.791C364.418 346.381 366.949 356.43 367.062 357.753C367.299 360.519 361.983 360.428 359.512 360.054C355.594 359.462 355.909 357.166 355.322 353.604C355.102 352.258 354.254 346.174 351.446 348.402C349.549 349.908 350.905 357.41 351.063 359.121C351.61 365.051 352.254 375.175 355.778 380.558C357.183 382.706 358.447 383.766 359.923 381.012C361.417 378.225 358.036 369.731 357.444 366.882C360.233 367.154 368.263 366.249 369.943 369.147C371.477 371.791 369.023 379.347 373.945 379.96C376.865 380.324 376.336 376.942 376.055 374.341C375.466 368.882 373.864 363.571 372.426 358.299Z" fill="black"/>
<path fill-rule="evenodd" clip-rule="evenodd" d="M379.905 355.658C376.672 357.118 380.731 378.415 385.461 377.728C390.982 376.925 382.986 354.266 379.905 355.658Z" fill="black"/>
<path fill-rule="evenodd" clip-rule="evenodd" d="M376.301 348.606C375.903 353.401 382.133 355.188 382.428 349.977C382.655 345.957 376.721 343.565 376.301 348.606Z" fill="black"/>
<path fill-rule="evenodd" clip-rule="evenodd" d="M342.101 221.474C344.945 232.075 370.836 236.585 367.348 222.287C365.601 215.128 358.305 221.488 353.212 220.655C349.916 220.117 340.098 213.998 342.101 221.474Z" fill="black"/>
<path fill-rule="evenodd" clip-rule="evenodd" d="M335.599 202.563C336.817 196.891 324.409 190.629 319.906 192.191C313.32 194.477 313.348 209.088 318.373 212.973C319.034 213.483 321.06 214.703 322.053 213.731C323.619 212.194 321.908 212.613 321.542 211.079C320.961 208.639 319.064 205.506 320.954 202.729C324.527 197.485 333.855 210.691 335.599 202.563Z" fill="black"/>
<path fill-rule="evenodd" clip-rule="evenodd" d="M297.765 230.098C293.291 229.847 289.623 236.791 296.205 236.209C297.466 236.097 300.174 235.78 300.905 234.456C302.115 232.262 299.732 230.209 297.765 230.098Z" fill="black"/>
<path fill-rule="evenodd" clip-rule="evenodd" d="M514.794 64.5517C513.262 62.3367 510.053 58.7719 507.29 60.9937C504.842 62.964 505.269 67.8269 506.209 70.2434C508.736 76.7489 514.706 82.5444 521.461 78.7962C519.114 74.0944 517.793 68.888 514.794 64.5517Z" fill="black"/>
</svg>
