<svg width="325" height="193" viewBox="0 0 325 193" fill="none" xmlns="http://www.w3.org/2000/svg">
<path d="M162.098 144.575L153.197 135.883C121.583 105.134 100.712 84.7887 100.712 59.9656C100.712 39.6199 115.567 23.7516 134.474 23.7516C145.155 23.7516 155.407 29.0849 162.098 37.4471C168.789 29.0849 179.04 23.7516 189.721 23.7516C208.628 23.7516 223.484 39.6199 223.484 59.9656C223.484 84.7887 202.612 105.134 170.999 135.883L162.098 144.575Z" fill="#019BA7"/>
<path d="M273.839 144.994L267.755 139.031C246.144 117.932 231.876 103.971 231.876 86.9385C231.876 72.978 242.031 62.0897 254.956 62.0897C262.258 62.0897 269.266 65.7493 273.839 71.4871C278.413 65.7493 285.421 62.0897 292.723 62.0897C305.648 62.0897 315.803 72.978 315.803 86.9385C315.803 103.971 301.535 117.932 279.924 139.031L273.839 144.994Z" fill="#2E2E2E"/>
<path d="M50.3558 144.994L44.2711 139.031C22.6601 117.932 8.39264 103.971 8.39264 86.9385C8.39264 72.978 18.5477 62.0897 31.4724 62.0897C38.774 62.0897 45.7818 65.7493 50.3558 71.4871C54.9298 65.7493 61.9376 62.0897 69.2392 62.0897C82.1639 62.0897 92.3189 72.978 92.3189 86.9385C92.3189 103.971 78.0515 117.932 56.4404 139.031L50.3558 144.994Z" fill="#2E2E2E"/>
</svg>
