<svg width="35" height="36" viewBox="0 0 35 36" fill="none" xmlns="http://www.w3.org/2000/svg">
<path fill-rule="evenodd" clip-rule="evenodd" d="M10.6748 0.595523C12.4887 0.508778 13.0671 0.489502 17.6877 0.489502C22.3084 0.489502 22.8868 0.510385 24.6991 0.595523C26.5115 0.680661 27.7486 0.981054 28.8311 1.41638C29.9646 1.86135 30.993 2.55691 31.8435 3.45648C32.7095 4.33838 33.3776 5.40502 33.8044 6.5841C34.225 7.70857 34.5126 8.99367 34.5961 10.8731C34.6796 12.7606 34.6982 13.3614 34.6982 18.1597C34.6982 22.9595 34.6781 23.5603 34.5961 25.4446C34.5142 27.3241 34.225 28.6092 33.8044 29.7336C33.3776 30.9129 32.7084 31.9813 31.8435 32.8645C30.993 33.764 29.9646 34.458 28.8311 34.9013C27.7486 35.3383 26.5115 35.6371 24.7022 35.7238C22.8868 35.8106 22.3084 35.8298 17.6877 35.8298C13.0671 35.8298 12.4887 35.8089 10.6748 35.7238C8.86549 35.6387 7.62837 35.3383 6.54589 34.9013C5.4107 34.4579 4.38219 33.7628 3.53194 32.8645C2.66654 31.982 1.99685 30.9141 1.56955 29.7352C1.15048 28.6108 0.862845 27.3257 0.779339 25.4462C0.695833 23.5587 0.677277 22.9579 0.677277 18.1597C0.677277 13.3598 0.69738 12.759 0.779339 10.8763C0.861299 8.99367 1.15048 7.70857 1.56955 6.5841C1.99748 5.40515 2.66768 4.33728 3.53349 3.45488C4.38253 2.55611 5.41001 1.86046 6.54434 1.41638C7.62682 0.981054 8.86395 0.682267 10.6732 0.595523H10.6748ZM24.5615 3.77615C22.7677 3.69101 22.2295 3.67334 17.6877 3.67334C13.1459 3.67334 12.6078 3.69101 10.814 3.77615C9.15467 3.85486 8.25466 4.14241 7.65466 4.38497C6.86135 4.70625 6.29382 5.08696 5.69846 5.70541C5.13409 6.27576 4.69976 6.97009 4.42731 7.73748C4.1938 8.36076 3.917 9.29567 3.84122 11.0193C3.75926 12.8827 3.74225 13.4417 3.74225 18.1597C3.74225 22.8776 3.75926 23.4366 3.84122 25.3C3.917 27.0237 4.1938 27.9586 4.42731 28.5818C4.69948 29.3481 5.13402 30.0437 5.69846 30.6139C6.24743 31.2002 6.91702 31.6516 7.65466 31.9344C8.25466 32.1769 9.15467 32.4645 10.814 32.5432C12.6078 32.6283 13.1444 32.646 17.6877 32.646C22.2311 32.646 22.7677 32.6283 24.5615 32.5432C26.2208 32.4645 27.1208 32.1769 27.7208 31.9344C28.5141 31.6131 29.0817 31.2324 29.677 30.6139C30.2415 30.0437 30.676 29.3481 30.9482 28.5818C31.1817 27.9586 31.4585 27.0237 31.5343 25.3C31.6162 23.4366 31.6332 22.8776 31.6332 18.1597C31.6332 13.4417 31.6162 12.8827 31.5343 11.0193C31.4585 9.29567 31.1817 8.36076 30.9482 7.73748C30.6389 6.91341 30.2724 6.32387 29.677 5.70541C29.1279 5.1192 28.4595 4.66803 27.7208 4.38497C27.1208 4.14241 26.2208 3.85486 24.5615 3.77615V3.77615ZM15.515 23.6069C16.7284 24.1316 18.0796 24.2024 19.3376 23.8072C20.5957 23.4121 21.6827 22.5755 22.4129 21.4403C23.1432 20.3051 23.4714 18.9418 23.3415 17.5831C23.2116 16.2245 22.6316 14.9549 21.7007 13.9911C21.1072 13.375 20.3896 12.9033 19.5996 12.6099C18.8096 12.3164 17.9668 12.2086 17.1318 12.2942C16.2968 12.3797 15.4905 12.6565 14.7709 13.1046C14.0513 13.5527 13.4363 14.161 12.9701 14.8856C12.504 15.6103 12.1983 16.4333 12.0751 17.2954C11.9519 18.1575 12.0142 19.0372 12.2576 19.8713C12.501 20.7054 12.9194 21.473 13.4826 22.1189C14.0459 22.7649 14.74 23.2731 15.515 23.6069ZM11.5052 11.7374C12.3171 10.894 13.281 10.225 14.3418 9.76852C15.4026 9.31209 16.5395 9.07716 17.6877 9.07716C18.8359 9.07716 19.9729 9.31209 21.0337 9.76852C22.0945 10.225 23.0584 10.894 23.8703 11.7374C24.6822 12.5808 25.3262 13.582 25.7656 14.6839C26.205 15.7859 26.4312 16.9669 26.4312 18.1597C26.4312 19.3524 26.205 20.5334 25.7656 21.6354C25.3262 22.7373 24.6822 23.7386 23.8703 24.582C22.2306 26.2853 20.0066 27.2422 17.6877 27.2422C15.3688 27.2422 13.1449 26.2853 11.5052 24.582C9.8655 22.8787 8.94432 20.5685 8.94432 18.1597C8.94432 15.7508 9.8655 13.4407 11.5052 11.7374V11.7374ZM28.3703 10.4298C28.5715 10.2326 28.7326 9.99554 28.844 9.73256C28.9554 9.46959 29.0149 9.18606 29.0189 8.89878C29.0229 8.6115 28.9714 8.3263 28.8674 8.06006C28.7635 7.79382 28.6091 7.55196 28.4135 7.3488C28.218 7.14564 27.9851 6.98531 27.7288 6.87729C27.4725 6.76928 27.198 6.71579 26.9214 6.71997C26.6449 6.72416 26.3719 6.78595 26.1188 6.90168C25.8656 7.0174 25.6374 7.18472 25.4476 7.39372C25.0785 7.80018 24.8764 8.34007 24.8842 8.89878C24.8921 9.45749 25.1092 9.99104 25.4896 10.3861C25.87 10.7813 26.3836 11.0068 26.9214 11.015C27.4593 11.0231 27.979 10.8132 28.3703 10.4298V10.4298Z" fill="#848A8A"/>
</svg>
