<svg width="108" height="108" viewBox="0 0 108 108" fill="none" xmlns="http://www.w3.org/2000/svg">
<path d="M79.272 30.8475V40.8577C79.2313 44.6002 77.7409 48.1811 75.1143 50.8474C72.4877 53.5136 68.9296 55.0575 65.1881 55.1542H42.6701C39.6677 55.2141 36.8077 56.4459 34.7014 58.5863C32.595 60.7267 31.4093 63.606 31.3976 66.609V88.074C31.3976 94.1827 36.7098 97.7805 42.6701 99.5321C50.001 101.825 57.8572 101.825 65.1881 99.5321C70.8648 97.8885 76.4606 94.581 76.4606 88.0774V79.4812H53.9426V76.6159H87.7331C94.284 76.6159 96.7274 72.0461 99.0056 65.1881C101.32 57.7246 101.32 49.7354 99.0056 42.2719C97.3856 35.7514 94.2941 30.8441 87.7331 30.8441L79.272 30.8475ZM66.609 85.212C67.4619 85.1993 68.2993 85.4407 69.0145 85.9056C69.7297 86.3705 70.2904 87.0378 70.625 87.8224C70.9597 88.6071 71.0532 89.4736 70.8936 90.3115C70.734 91.1495 70.3287 91.921 69.7291 92.5278C69.1295 93.1345 68.3628 93.5491 67.5268 93.7186C66.6908 93.8881 65.8233 93.8049 65.0347 93.4796C64.2461 93.1543 63.5722 92.6017 63.0989 91.892C62.6255 91.1824 62.3741 90.3479 62.3767 89.4949C62.3723 88.9353 62.4783 88.3803 62.6887 87.8618C62.8992 87.3433 63.2099 86.8714 63.6031 86.4732C63.9963 86.075 64.4642 85.7583 64.98 85.5413C65.4958 85.3243 66.0494 85.2113 66.609 85.2086V85.212Z" fill="black"/>
<path d="M53.4431 6.74999C49.8326 6.75444 46.2289 7.06265 42.6701 7.67137C33.1289 9.35549 31.3976 12.8824 31.3976 19.3894V27.9787H53.9426V30.8441H22.9364C19.6179 30.7828 16.3844 31.8964 13.8073 33.9881C11.2302 36.0798 9.47524 39.015 8.85257 42.2752C6.73632 49.7663 6.73632 57.6971 8.85257 65.1881C10.4557 71.8605 14.2829 76.6159 20.8338 76.6159H28.5862V66.3187C28.6686 62.6165 30.1812 59.09 32.8069 56.4788C35.4327 53.8675 38.9675 52.3744 42.6701 52.3125H65.1881C66.6806 52.3015 68.1564 51.9963 69.5309 51.4145C70.9055 50.8327 72.1518 49.9857 73.1988 48.9218C74.2457 47.8579 75.0727 46.5981 75.6323 45.2144C76.192 43.8307 76.4735 42.3503 76.4606 40.8577V19.3894C76.271 16.4185 75.0345 13.611 72.9707 11.4656C70.9069 9.32023 68.1494 7.97587 65.1881 7.67137C61.3057 7.03629 57.3769 6.72809 53.4431 6.74999ZM41.2526 13.662C42.1044 13.6493 42.9407 13.8901 43.6553 14.3538C44.3699 14.8175 44.9306 15.4831 45.266 16.2662C45.6014 17.0493 45.6965 17.9144 45.5391 18.7516C45.3817 19.5888 44.979 20.3603 44.3822 20.9682C43.7853 21.576 43.0212 21.9926 42.187 22.1652C41.3528 22.3378 40.4861 22.2584 39.697 21.9373C38.908 21.6162 38.2323 21.0677 37.7557 20.3616C37.279 19.6556 37.0231 18.8237 37.0203 17.9719C37.0122 16.8398 37.453 15.7506 38.2463 14.9428C39.0395 14.135 40.1205 13.6745 41.2526 13.662Z" fill="#008E98"/>
</svg>
