<svg width="144" height="40" viewBox="0 0 144 40" fill="none" xmlns="http://www.w3.org/2000/svg">
<path fill-rule="evenodd" clip-rule="evenodd" d="M10.6748 4.59552C12.4887 4.50878 13.0671 4.4895 17.6877 4.4895C22.3084 4.4895 22.8868 4.51038 24.6991 4.59552C26.5115 4.68066 27.7486 4.98105 28.8311 5.41638C29.9646 5.86135 30.993 6.55691 31.8435 7.45648C32.7095 8.33838 33.3776 9.40502 33.8044 10.5841C34.225 11.7086 34.5126 12.9937 34.5961 14.8731C34.6796 16.7606 34.6982 17.3614 34.6982 22.1597C34.6982 26.9595 34.6781 27.5603 34.5961 29.4446C34.5142 31.3241 34.225 32.6092 33.8044 33.7336C33.3776 34.9129 32.7084 35.9813 31.8435 36.8645C30.993 37.764 29.9646 38.458 28.8311 38.9013C27.7486 39.3383 26.5115 39.6371 24.7022 39.7238C22.8868 39.8106 22.3084 39.8298 17.6877 39.8298C13.0671 39.8298 12.4887 39.8089 10.6748 39.7238C8.86549 39.6387 7.62837 39.3383 6.54589 38.9013C5.4107 38.4579 4.38219 37.7628 3.53194 36.8645C2.66654 35.982 1.99685 34.9141 1.56955 33.7352C1.15048 32.6108 0.862845 31.3257 0.779339 29.4462C0.695833 27.5587 0.677277 26.9579 0.677277 22.1597C0.677277 17.3598 0.69738 16.759 0.779339 14.8763C0.861299 12.9937 1.15048 11.7086 1.56955 10.5841C1.99748 9.40515 2.66768 8.33728 3.53349 7.45488C4.38253 6.55611 5.41001 5.86046 6.54434 5.41638C7.62682 4.98105 8.86395 4.68227 10.6732 4.59552H10.6748ZM24.5615 7.77615C22.7677 7.69101 22.2295 7.67334 17.6877 7.67334C13.1459 7.67334 12.6078 7.69101 10.814 7.77615C9.15467 7.85486 8.25466 8.14241 7.65466 8.38497C6.86135 8.70625 6.29382 9.08696 5.69846 9.70541C5.13409 10.2758 4.69976 10.9701 4.42731 11.7375C4.1938 12.3608 3.917 13.2957 3.84122 15.0193C3.75926 16.8827 3.74225 17.4417 3.74225 22.1597C3.74225 26.8776 3.75926 27.4366 3.84122 29.3C3.917 31.0237 4.1938 31.9586 4.42731 32.5818C4.69948 33.3481 5.13402 34.0437 5.69846 34.6139C6.24743 35.2002 6.91702 35.6516 7.65466 35.9344C8.25466 36.1769 9.15467 36.4645 10.814 36.5432C12.6078 36.6283 13.1444 36.646 17.6877 36.646C22.2311 36.646 22.7677 36.6283 24.5615 36.5432C26.2208 36.4645 27.1208 36.1769 27.7208 35.9344C28.5141 35.6131 29.0817 35.2324 29.677 34.6139C30.2415 34.0437 30.676 33.3481 30.9482 32.5818C31.1817 31.9586 31.4585 31.0237 31.5343 29.3C31.6162 27.4366 31.6332 26.8776 31.6332 22.1597C31.6332 17.4417 31.6162 16.8827 31.5343 15.0193C31.4585 13.2957 31.1817 12.3608 30.9482 11.7375C30.6389 10.9134 30.2724 10.3239 29.677 9.70541C29.1279 9.1192 28.4595 8.66803 27.7208 8.38497C27.1208 8.14241 26.2208 7.85486 24.5615 7.77615V7.77615ZM15.515 27.6069C16.7284 28.1316 18.0796 28.2024 19.3376 27.8072C20.5957 27.4121 21.6827 26.5755 22.4129 25.4403C23.1432 24.3051 23.4714 22.9418 23.3415 21.5831C23.2116 20.2245 22.6316 18.9549 21.7007 17.9911C21.1072 17.375 20.3896 16.9033 19.5996 16.6099C18.8096 16.3164 17.9668 16.2086 17.1318 16.2942C16.2968 16.3797 15.4905 16.6565 14.7709 17.1046C14.0513 17.5527 13.4363 18.161 12.9701 18.8856C12.504 19.6103 12.1983 20.4333 12.0751 21.2954C11.9519 22.1575 12.0142 23.0372 12.2576 23.8713C12.501 24.7054 12.9194 25.473 13.4826 26.1189C14.0459 26.7649 14.74 27.2731 15.515 27.6069ZM11.5052 15.7374C12.3171 14.894 13.281 14.225 14.3418 13.7685C15.4026 13.3121 16.5395 13.0772 17.6877 13.0772C18.8359 13.0772 19.9729 13.3121 21.0337 13.7685C22.0945 14.225 23.0584 14.894 23.8703 15.7374C24.6822 16.5808 25.3262 17.582 25.7656 18.6839C26.205 19.7859 26.4312 20.9669 26.4312 22.1597C26.4312 23.3524 26.205 24.5334 25.7656 25.6354C25.3262 26.7373 24.6822 27.7386 23.8703 28.582C22.2306 30.2853 20.0066 31.2422 17.6877 31.2422C15.3688 31.2422 13.1449 30.2853 11.5052 28.582C9.8655 26.8787 8.94432 24.5685 8.94432 22.1597C8.94432 19.7508 9.8655 17.4407 11.5052 15.7374V15.7374ZM28.3703 14.4298C28.5715 14.2326 28.7326 13.9955 28.844 13.7326C28.9554 13.4696 29.0149 13.1861 29.0189 12.8988C29.0229 12.6115 28.9714 12.3263 28.8674 12.0601C28.7635 11.7938 28.6091 11.552 28.4135 11.3488C28.218 11.1456 27.9851 10.9853 27.7288 10.8773C27.4725 10.7693 27.198 10.7158 26.9214 10.72C26.6449 10.7242 26.3719 10.7859 26.1188 10.9017C25.8656 11.0174 25.6374 11.1847 25.4476 11.3937C25.0785 11.8002 24.8764 12.3401 24.8842 12.8988C24.8921 13.4575 25.1092 13.991 25.4896 14.3861C25.87 14.7813 26.3836 15.0068 26.9214 15.015C27.4593 15.0231 27.979 14.8132 28.3703 14.4298V14.4298Z" fill="#848A8A"/>
<path d="M100.455 8.14969C98.9425 8.76821 97.3177 9.18613 95.6096 9.37503C97.3721 8.40177 98.6907 6.86996 99.3193 5.06543C97.6634 5.97314 95.8511 6.61206 93.9612 6.95443C92.6903 5.70212 91.0069 4.87206 89.1724 4.59313C87.3379 4.31421 85.455 4.60202 83.8159 5.41189C82.1769 6.22176 80.8734 7.50837 80.1078 9.07196C79.3423 10.6356 79.1575 12.3887 79.5822 14.0591C76.2269 13.9036 72.9446 13.0988 69.9481 11.6968C66.9517 10.2949 64.3082 8.32716 62.1891 5.92133C61.4646 7.07479 61.0479 8.41214 61.0479 9.83642C61.0471 11.1186 61.3893 12.3811 62.044 13.512C62.6987 14.6429 63.6458 15.6071 64.8012 16.3192C63.4612 16.2799 62.1509 15.9457 60.9791 15.3446V15.4449C60.979 17.2432 61.653 18.9862 62.8868 20.3781C64.1207 21.7699 65.8383 22.725 67.7483 23.0812C66.5053 23.3916 65.2021 23.4374 63.9371 23.2149C64.476 24.7623 65.5257 26.1153 66.9393 27.0848C68.3529 28.0542 70.0595 28.5914 71.8204 28.6212C68.8312 30.7867 65.1397 31.9613 61.3396 31.9562C60.6664 31.9563 59.9938 31.9201 59.3253 31.8475C63.1826 34.1363 67.6729 35.3511 72.2587 35.3463C87.7825 35.3463 96.2689 23.4807 96.2689 13.1898C96.2689 12.8555 96.2599 12.5178 96.2436 12.1835C97.8943 11.0818 99.3192 9.71756 100.451 8.1547L100.455 8.14969V8.14969Z" fill="#848A8A"/>
<g clip-path="url(#clip0)">
<path d="M129.495 39.3023V21.1108H124.828V14.561H129.495V8.96665C129.495 4.57053 132.251 0.533447 138.603 0.533447C141.174 0.533447 143.076 0.787577 143.076 0.787577L142.926 6.90399C142.926 6.90399 140.987 6.88453 138.87 6.88453C136.58 6.88453 136.213 7.97257 136.213 9.77847V14.561H143.108L142.808 21.1108H136.213V39.3023H129.495Z" fill="#848A8A"/>
</g>
<defs>
<clipPath id="clip0">
<rect width="18.2799" height="38.7689" fill="white" transform="translate(124.828 0.533447)"/>
</clipPath>
</defs>
</svg>
