<svg width="42" height="32" viewBox="0 0 42 32" fill="none" xmlns="http://www.w3.org/2000/svg">
<path d="M41.4551 4.14969C39.9425 4.76821 38.3177 5.18613 36.6096 5.37503C38.3721 4.40177 39.6907 2.86996 40.3193 1.06543C38.6634 1.97314 36.8511 2.61206 34.9612 2.95443C33.6903 1.70212 32.0069 0.872058 30.1724 0.593134C28.3379 0.314209 26.455 0.602023 24.8159 1.41189C23.1769 2.22176 21.8734 3.50837 21.1078 5.07196C20.3423 6.63556 20.1575 8.38867 20.5822 10.0591C17.2269 9.90362 13.9446 9.0988 10.9481 7.69685C7.95171 6.2949 5.30818 4.32716 3.18912 1.92133C2.46456 3.07479 2.04793 4.41214 2.04793 5.83642C2.04713 7.11859 2.38926 8.38113 3.04399 9.51201C3.69871 10.6429 4.64578 11.6071 5.80117 12.3192C4.46123 12.2799 3.15085 11.9457 1.9791 11.3446V11.4449C1.97897 13.2432 2.653 14.9862 3.88684 16.3781C5.12068 17.7699 6.83833 18.725 8.74832 19.0812C7.50531 19.3916 6.2021 19.4374 4.93713 19.2149C5.47601 20.7623 6.52572 22.1153 7.93929 23.0848C9.35286 24.0542 11.0595 24.5914 12.8204 24.6212C9.83124 26.7867 6.1397 27.9613 2.33957 27.9562C1.66642 27.9563 0.993834 27.9201 0.325287 27.8475C4.18263 30.1363 8.67286 31.3511 13.2587 31.3463C28.7825 31.3463 37.2689 19.4807 37.2689 9.18982C37.2689 8.85548 37.2599 8.5178 37.2436 8.18347C38.8943 7.08178 40.3192 5.71756 41.4514 4.1547L41.4551 4.14969V4.14969Z" fill="#848A8A"/>
</svg>
